# xmcd
#
# Track frame offsets:
#	150
#	17060
#	42872
#	65150
#	87037
#	102705
#	126927
#	146430
#	170077
#	184622
#
# Disc length: 2909 seconds
#
# Revision: 0
# Processed by: cddbd v1.4PL0 Copyright (c) Steve Scherf et al.
# Submitted via: dBpowerAMP V4.0
#
DISCID=8c0b5b0a
DTITLE=Jennifer - Red
DYEAR=1900
DGENRE=Ballad
TTITLE0=Always Tomorrow
TTITLE1=Make Me An Angel
TTITLE2=Goodbye
TTITLE3=Turn Back
TTITLE4=I Am Gone
TTITLE5=Forgiveness (Angel´s Calling)
TTITLE6=I Can´t Believe
TTITLE7=A Night Like This
TTITLE8=Matte Kudesai
TTITLE9=Want and Wonder
EXTD=
EXTT0=
EXTT1=
EXTT2=
EXTT3=
EXTT4=
EXTT5=
EXTT6=
EXTT7=
EXTT8=
EXTT9=
PLAYORDER=
